<svg xmlns="http://www.w3.org/2000/svg" viewBox="0 0 400 300">
  <defs>
    <linearGradient id="bg" x1="0" y1="0" x2="1" y2="1">
      <stop offset="0" stop-color="#EDF2EC"/>
      <stop offset="1" stop-color="#DFE9DE"/>
    </linearGradient>
  </defs>
  <rect width="400" height="300" rx="20" fill="url(#bg)"/>
  <circle cx="330" cy="58" r="22" fill="#ffffff" opacity="0.6"/>
  <circle cx="64" cy="68" r="12" fill="#ffffff" opacity="0.55"/>
  <ellipse cx="200" cy="248" rx="110" ry="14" fill="#16324F" opacity="0.10"/>
  <rect x="118" y="74" width="164" height="24" rx="6" fill="#16324F"/>
  <rect x="140" y="98" width="120" height="16" rx="4" fill="#16324F"/>
  <circle cx="172" cy="132" r="16" fill="#6E947F"/>
  <path d="M146 190c0-30 14-44 26-44s26 14 26 44" fill="#16324F"/>
  <path d="M132 190h80" stroke="#16324F" stroke-width="5" stroke-linecap="round"/>
  <circle cx="256" cy="168" r="13" fill="#5B9BD5" opacity="0.8"/>
  <path d="M238 202c0-24 10-36 18-36s18 12 18 36" fill="#5B9BD5" opacity="0.8"/>
  <path d="M228 202h56" stroke="#16324F" stroke-width="5" stroke-linecap="round" opacity="0.8"/>
  <path d="M120 226h160" stroke="#16324F" stroke-width="5" stroke-linecap="round" opacity="0.45"/>
</svg>
