<svg xmlns="http://www.w3.org/2000/svg" viewBox="0 0 400 300">
  <defs>
    <linearGradient id="bg" x1="0" y1="0" x2="1" y2="1">
      <stop offset="0" stop-color="#E8F1FA"/>
      <stop offset="1" stop-color="#D7E7F4"/>
    </linearGradient>
  </defs>
  <rect width="400" height="300" rx="20" fill="url(#bg)"/>
  <circle cx="330" cy="58" r="22" fill="#ffffff" opacity="0.6"/>
  <circle cx="64" cy="68" r="12" fill="#ffffff" opacity="0.55"/>
  <ellipse cx="200" cy="248" rx="110" ry="14" fill="#16324F" opacity="0.10"/>
  <rect x="96" y="120" width="208" height="104" rx="6" fill="#16324F"/>
  <rect x="96" y="120" width="208" height="18" fill="#0F2438"/>
  <rect x="120" y="152" width="30" height="24" rx="3" fill="#ffffff" opacity="0.85"/>
  <rect x="168" y="152" width="30" height="24" rx="3" fill="#ffffff" opacity="0.85"/>
  <rect x="216" y="152" width="30" height="24" rx="3" fill="#ffffff" opacity="0.85"/>
  <rect x="264" y="152" width="26" height="24" rx="3" fill="#ffffff" opacity="0.85"/>
  <rect x="120" y="188" width="56" height="36" rx="3" fill="#ffffff" opacity="0.9"/>
  <rect x="140" y="196" width="30" height="20" rx="2" fill="#5B9BD5" opacity="0.5"/>
  <rect x="216" y="188" width="74" height="36" rx="3" fill="#ffffff" opacity="0.9"/>
  <path d="M236 188v-34h24v34" fill="none" stroke="#5B9BD5" stroke-width="4"/>
  <path d="M96 224h208" stroke="#ffffff" stroke-width="4" opacity="0.6"/>
</svg>
