<svg xmlns="http://www.w3.org/2000/svg" viewBox="0 0 224 224">
<rect width="224" height="224" rx="16" fill="#ffffff" stroke="#e2eaf0" stroke-width="2"/>
<rect x="12" y="12" width="8" height="8" rx="1.5" fill="#0b2435"/><rect x="20" y="12" width="8" height="8" rx="1.5" fill="#0b2435"/><rect x="28" y="12" width="8" height="8" rx="1.5" fill="#0b2435"/><rect x="36" y="12" width="8" height="8" rx="1.5" fill="#0b2435"/><rect x="44" y="12" width="8" height="8" rx="1.5" fill="#0b2435"/><rect x="52" y="12" width="8" height="8" rx="1.5" fill="#0b2435"/><rect x="60" y="12" width="8" height="8" rx="1.5" fill="#0b2435"/><rect x="68" y="12" width="8" height="8" rx="1.5" fill="#0b2435"/><rect x="76" y="12" width="8" height="8" rx="1.5" fill="#0b2435"/><rect x="84" y="12" width="8" height="8" rx="1.5" fill="#0b2435"/><rect x="92" y="12" width="8" height="8" rx="1.5" fill="#0b2435"/><rect x="108" y="12" width="8" height="8" rx="1.5" fill="#0b2435"/><rect x="116" y="12" width="8" height="8" rx="1.5" fill="#0b2435"/><rect x="132" y="12" width="8" height="8" rx="1.5" fill="#0b2435"/><rect x="156" y="12" width="8" height="8" rx="1.5" fill="#0b2435"/><rect x="164" y="12" width="8" height="8" rx="1.5" fill="#0b2435"/><rect x="172" y="12" width="8" height="8" rx="1.5" fill="#0b2435"/><rect x="180" y="12" width="8" height="8" rx="1.5" fill="#0b2435"/><rect x="188" y="12" width="8" height="8" rx="1.5" fill="#0b2435"/><rect x="196" y="12" width="8" height="8" rx="1.5" fill="#0b2435"/><rect x="204" y="12" width="8" height="8" rx="1.5" fill="#0b2435"/><rect x="12" y="20" width="8" height="8" rx="1.5" fill="#0b2435"/><rect x="20" y="20" width="8" height="8" rx="1.5" fill="#0b2435"/><rect x="28" y="20" width="8" height="8" rx="1.5" fill="#0b2435"/><rect x="36" y="20" width="8" height="8" rx="1.5" fill="#0b2435"/><rect x="44" y="20" width="8" height="8" rx="1.5" fill="#0b2435"/><rect x="52" y="20" width="8" height="8" rx="1.5" fill="#0b2435"/><rect x="60" y="20" width="8" height="8" rx="1.5" fill="#0b2435"/><rect x="68" y="20" width="8" height="8" rx="1.5" fill="#0b2435"/><rect x="100" y="20" width="8" height="8" rx="1.5" fill="#0b2435"/><rect x="124" y="20" width="8" height="8" rx="1.5" fill="#0b2435"/><rect x="140" y="20" width="8" height="8" rx="1.5" fill="#0b2435"/><rect x="156" y="20" width="8" height="8" rx="1.5" fill="#0b2435"/><rect x="164" y="20" width="8" height="8" rx="1.5" fill="#0b2435"/><rect x="172" y="20" width="8" height="8" rx="1.5" fill="#0b2435"/><rect x="180" y="20" width="8" height="8" rx="1.5" fill="#0b2435"/><rect x="188" y="20" width="8" height="8" rx="1.5" fill="#0b2435"/><rect x="196" y="20" width="8" height="8" rx="1.5" fill="#0b2435"/><rect x="204" y="20" width="8" height="8" rx="1.5" fill="#0b2435"/><rect x="12" y="28" width="8" height="8" rx="1.5" fill="#0b2435"/><rect x="20" y="28" width="8" height="8" rx="1.5" fill="#0b2435"/><rect x="28" y="28" width="8" height="8" rx="1.5" fill="#0b2435"/><rect x="36" y="28" width="8" height="8" rx="1.5" fill="#0b2435"/><rect x="44" y="28" width="8" height="8" rx="1.5" fill="#0b2435"/><rect x="52" y="28" width="8" height="8" rx="1.5" fill="#0b2435"/><rect x="60" y="28" width="8" height="8" rx="1.5" fill="#0b2435"/><rect x="76" y="28" width="8" height="8" rx="1.5" fill="#0b2435"/><rect x="108" y="28" width="8" height="8" rx="1.5" fill="#0b2435"/><rect x="132" y="28" width="8" height="8" rx="1.5" fill="#0b2435"/><rect x="140" y="28" width="8" height="8" rx="1.5" fill="#0b2435"/><rect x="156" y="28" width="8" height="8" rx="1.5" fill="#0b2435"/><rect x="164" y="28" width="8" height="8" rx="1.5" fill="#0b2435"/><rect x="172" y="28" width="8" height="8" rx="1.5" fill="#0b2435"/><rect x="180" y="28" width="8" height="8" rx="1.5" fill="#0b2435"/><rect x="188" y="28" width="8" height="8" rx="1.5" fill="#0b2435"/><rect x="196" y="28" width="8" height="8" rx="1.5" fill="#0b2435"/><rect x="204" y="28" width="8" height="8" rx="1.5" fill="#0b2435"/><rect x="12" y="36" width="8" height="8" rx="1.5" fill="#0b2435"/><rect x="20" y="36" width="8" height="8" rx="1.5" fill="#0b2435"/><rect x="28" y="36" width="8" height="8" rx="1.5" fill="#0b2435"/><rect x="36" y="36" width="8" height="8" rx="1.5" fill="#0b2435"/><rect x="44" y="36" width="8" height="8" rx="1.5" fill="#0b2435"/><rect x="52" y="36" width="8" height="8" rx="1.5" fill="#0b2435"/><rect x="60" y="36" width="8" height="8" rx="1.5" fill="#0b2435"/><rect x="68" y="36" width="8" height="8" rx="1.5" fill="#0b2435"/><rect x="92" y="36" width="8" height="8" rx="1.5" fill="#0b2435"/><rect x="100" y="36" width="8" height="8" rx="1.5" fill="#0b2435"/><rect x="124" y="36" width="8" height="8" rx="1.5" fill="#0b2435"/><rect x="132" y="36" width="8" height="8" rx="1.5" fill="#0b2435"/><rect x="156" y="36" width="8" height="8" rx="1.5" fill="#0b2435"/><rect x="164" y="36" width="8" height="8" rx="1.5" fill="#0b2435"/><rect x="172" y="36" width="8" height="8" rx="1.5" fill="#0b2435"/><rect x="180" y="36" width="8" height="8" rx="1.5" fill="#0b2435"/><rect x="188" y="36" width="8" height="8" rx="1.5" fill="#0b2435"/><rect x="196" y="36" width="8" height="8" rx="1.5" fill="#0b2435"/><rect x="204" y="36" width="8" height="8" rx="1.5" fill="#0b2435"/><rect x="12" y="44" width="8" height="8" rx="1.5" fill="#0b2435"/><rect x="20" y="44" width="8" height="8" rx="1.5" fill="#0b2435"/><rect x="28" y="44" width="8" height="8" rx="1.5" fill="#0b2435"/><rect x="36" y="44" width="8" height="8" rx="1.5" fill="#0b2435"/><rect x="44" y="44" width="8" height="8" rx="1.5" fill="#0b2435"/><rect x="52" y="44" width="8" height="8" rx="1.5" fill="#0b2435"/><rect x="60" y="44" width="8" height="8" rx="1.5" fill="#0b2435"/><rect x="100" y="44" width="8" height="8" rx="1.5" fill="#0b2435"/><rect x="108" y="44" width="8" height="8" rx="1.5" fill="#0b2435"/><rect x="116" y="44" width="8" height="8" rx="1.5" fill="#0b2435"/><rect x="140" y="44" width="8" height="8" rx="1.5" fill="#0b2435"/><rect x="148" y="44" width="8" height="8" rx="1.5" fill="#0b2435"/><rect x="156" y="44" width="8" height="8" rx="1.5" fill="#0b2435"/><rect x="164" y="44" width="8" height="8" rx="1.5" fill="#0b2435"/><rect x="172" y="44" width="8" height="8" rx="1.5" fill="#0b2435"/><rect x="180" y="44" width="8" height="8" rx="1.5" fill="#0b2435"/><rect x="188" y="44" width="8" height="8" rx="1.5" fill="#0b2435"/><rect x="196" y="44" width="8" height="8" rx="1.5" fill="#0b2435"/><rect x="204" y="44" width="8" height="8" rx="1.5" fill="#0b2435"/><rect x="12" y="52" width="8" height="8" rx="1.5" fill="#0b2435"/><rect x="20" y="52" width="8" height="8" rx="1.5" fill="#0b2435"/><rect x="28" y="52" width="8" height="8" rx="1.5" fill="#0b2435"/><rect x="36" y="52" width="8" height="8" rx="1.5" fill="#0b2435"/><rect x="44" y="52" width="8" height="8" rx="1.5" fill="#0b2435"/><rect x="52" y="52" width="8" height="8" rx="1.5" fill="#0b2435"/><rect x="60" y="52" width="8" height="8" rx="1.5" fill="#0b2435"/><rect x="76" y="52" width="8" height="8" rx="1.5" fill="#0b2435"/><rect x="84" y="52" width="8" height="8" rx="1.5" fill="#0b2435"/><rect x="92" y="52" width="8" height="8" rx="1.5" fill="#0b2435"/><rect x="140" y="52" width="8" height="8" rx="1.5" fill="#0b2435"/><rect x="148" y="52" width="8" height="8" rx="1.5" fill="#0b2435"/><rect x="156" y="52" width="8" height="8" rx="1.5" fill="#0b2435"/><rect x="164" y="52" width="8" height="8" rx="1.5" fill="#0b2435"/><rect x="172" y="52" width="8" height="8" rx="1.5" fill="#0b2435"/><rect x="180" y="52" width="8" height="8" rx="1.5" fill="#0b2435"/><rect x="188" y="52" width="8" height="8" rx="1.5" fill="#0b2435"/><rect x="196" y="52" width="8" height="8" rx="1.5" fill="#0b2435"/><rect x="204" y="52" width="8" height="8" rx="1.5" fill="#0b2435"/><rect x="12" y="60" width="8" height="8" rx="1.5" fill="#0b2435"/><rect x="20" y="60" width="8" height="8" rx="1.5" fill="#0b2435"/><rect x="28" y="60" width="8" height="8" rx="1.5" fill="#0b2435"/><rect x="36" y="60" width="8" height="8" rx="1.5" fill="#0b2435"/><rect x="44" y="60" width="8" height="8" rx="1.5" fill="#0b2435"/><rect x="52" y="60" width="8" height="8" rx="1.5" fill="#0b2435"/><rect x="60" y="60" width="8" height="8" rx="1.5" fill="#0b2435"/><rect x="84" y="60" width="8" height="8" rx="1.5" fill="#0b2435"/><rect x="124" y="60" width="8" height="8" rx="1.5" fill="#0b2435"/><rect x="132" y="60" width="8" height="8" rx="1.5" fill="#0b2435"/><rect x="148" y="60" width="8" height="8" rx="1.5" fill="#0b2435"/><rect x="156" y="60" width="8" height="8" rx="1.5" fill="#0b2435"/><rect x="164" y="60" width="8" height="8" rx="1.5" fill="#0b2435"/><rect x="172" y="60" width="8" height="8" rx="1.5" fill="#0b2435"/><rect x="180" y="60" width="8" height="8" rx="1.5" fill="#0b2435"/><rect x="188" y="60" width="8" height="8" rx="1.5" fill="#0b2435"/><rect x="196" y="60" width="8" height="8" rx="1.5" fill="#0b2435"/><rect x="204" y="60" width="8" height="8" rx="1.5" fill="#0b2435"/><rect x="12" y="68" width="8" height="8" rx="1.5" fill="#0b2435"/><rect x="20" y="68" width="8" height="8" rx="1.5" fill="#0b2435"/><rect x="76" y="68" width="8" height="8" rx="1.5" fill="#0b2435"/><rect x="84" y="68" width="8" height="8" rx="1.5" fill="#0b2435"/><rect x="92" y="68" width="8" height="8" rx="1.5" fill="#0b2435"/><rect x="116" y="68" width="8" height="8" rx="1.5" fill="#0b2435"/><rect x="132" y="68" width="8" height="8" rx="1.5" fill="#0b2435"/><rect x="180" y="68" width="8" height="8" rx="1.5" fill="#0b2435"/><rect x="188" y="68" width="8" height="8" rx="1.5" fill="#0b2435"/><rect x="20" y="76" width="8" height="8" rx="1.5" fill="#0b2435"/><rect x="28" y="76" width="8" height="8" rx="1.5" fill="#0b2435"/><rect x="52" y="76" width="8" height="8" rx="1.5" fill="#0b2435"/><rect x="60" y="76" width="8" height="8" rx="1.5" fill="#0b2435"/><rect x="92" y="76" width="8" height="8" rx="1.5" fill="#0b2435"/><rect x="100" y="76" width="8" height="8" rx="1.5" fill="#0b2435"/><rect x="108" y="76" width="8" height="8" rx="1.5" fill="#0b2435"/><rect x="140" y="76" width="8" height="8" rx="1.5" fill="#0b2435"/><rect x="164" y="76" width="8" height="8" rx="1.5" fill="#0b2435"/><rect x="180" y="76" width="8" height="8" rx="1.5" fill="#0b2435"/><rect x="196" y="76" width="8" height="8" rx="1.5" fill="#0b2435"/><rect x="12" y="84" width="8" height="8" rx="1.5" fill="#0b2435"/><rect x="20" y="84" width="8" height="8" rx="1.5" fill="#0b2435"/><rect x="28" y="84" width="8" height="8" rx="1.5" fill="#0b2435"/><rect x="36" y="84" width="8" height="8" rx="1.5" fill="#0b2435"/><rect x="44" y="84" width="8" height="8" rx="1.5" fill="#0b2435"/><rect x="52" y="84" width="8" height="8" rx="1.5" fill="#0b2435"/><rect x="76" y="84" width="8" height="8" rx="1.5" fill="#0b2435"/><rect x="100" y="84" width="8" height="8" rx="1.5" fill="#0b2435"/><rect x="108" y="84" width="8" height="8" rx="1.5" fill="#0b2435"/><rect x="132" y="84" width="8" height="8" rx="1.5" fill="#0b2435"/><rect x="156" y="84" width="8" height="8" rx="1.5" fill="#0b2435"/><rect x="164" y="84" width="8" height="8" rx="1.5" fill="#0b2435"/><rect x="172" y="84" width="8" height="8" rx="1.5" fill="#0b2435"/><rect x="180" y="84" width="8" height="8" rx="1.5" fill="#0b2435"/><rect x="188" y="84" width="8" height="8" rx="1.5" fill="#0b2435"/><rect x="196" y="84" width="8" height="8" rx="1.5" fill="#0b2435"/><rect x="12" y="92" width="8" height="8" rx="1.5" fill="#0b2435"/><rect x="52" y="92" width="8" height="8" rx="1.5" fill="#0b2435"/><rect x="60" y="92" width="8" height="8" rx="1.5" fill="#0b2435"/><rect x="68" y="92" width="8" height="8" rx="1.5" fill="#0b2435"/><rect x="76" y="92" width="8" height="8" rx="1.5" fill="#0b2435"/><rect x="84" y="92" width="8" height="8" rx="1.5" fill="#0b2435"/><rect x="92" y="92" width="8" height="8" rx="1.5" fill="#0b2435"/><rect x="100" y="92" width="8" height="8" rx="1.5" fill="#0b2435"/><rect x="132" y="92" width="8" height="8" rx="1.5" fill="#0b2435"/><rect x="140" y="92" width="8" height="8" rx="1.5" fill="#0b2435"/><rect x="164" y="92" width="8" height="8" rx="1.5" fill="#0b2435"/><rect x="172" y="92" width="8" height="8" rx="1.5" fill="#0b2435"/><rect x="180" y="92" width="8" height="8" rx="1.5" fill="#0b2435"/><rect x="188" y="92" width="8" height="8" rx="1.5" fill="#0b2435"/><rect x="36" y="100" width="8" height="8" rx="1.5" fill="#0b2435"/><rect x="76" y="100" width="8" height="8" rx="1.5" fill="#0b2435"/><rect x="84" y="100" width="8" height="8" rx="1.5" fill="#0b2435"/><rect x="164" y="100" width="8" height="8" rx="1.5" fill="#0b2435"/><rect x="172" y="100" width="8" height="8" rx="1.5" fill="#0b2435"/><rect x="180" y="100" width="8" height="8" rx="1.5" fill="#0b2435"/><rect x="20" y="108" width="8" height="8" rx="1.5" fill="#0b2435"/><rect x="28" y="108" width="8" height="8" rx="1.5" fill="#0b2435"/><rect x="36" y="108" width="8" height="8" rx="1.5" fill="#0b2435"/><rect x="44" y="108" width="8" height="8" rx="1.5" fill="#0b2435"/><rect x="52" y="108" width="8" height="8" rx="1.5" fill="#0b2435"/><rect x="124" y="108" width="8" height="8" rx="1.5" fill="#0b2435"/><rect x="132" y="108" width="8" height="8" rx="1.5" fill="#0b2435"/><rect x="156" y="108" width="8" height="8" rx="1.5" fill="#0b2435"/><rect x="164" y="108" width="8" height="8" rx="1.5" fill="#0b2435"/><rect x="172" y="108" width="8" height="8" rx="1.5" fill="#0b2435"/><rect x="188" y="108" width="8" height="8" rx="1.5" fill="#0b2435"/><rect x="196" y="108" width="8" height="8" rx="1.5" fill="#0b2435"/><rect x="28" y="116" width="8" height="8" rx="1.5" fill="#0b2435"/><rect x="60" y="116" width="8" height="8" rx="1.5" fill="#0b2435"/><rect x="76" y="116" width="8" height="8" rx="1.5" fill="#0b2435"/><rect x="92" y="116" width="8" height="8" rx="1.5" fill="#0b2435"/><rect x="108" y="116" width="8" height="8" rx="1.5" fill="#0b2435"/><rect x="124" y="116" width="8" height="8" rx="1.5" fill="#0b2435"/><rect x="148" y="116" width="8" height="8" rx="1.5" fill="#0b2435"/><rect x="156" y="116" width="8" height="8" rx="1.5" fill="#0b2435"/><rect x="164" y="116" width="8" height="8" rx="1.5" fill="#0b2435"/><rect x="180" y="116" width="8" height="8" rx="1.5" fill="#0b2435"/><rect x="28" y="124" width="8" height="8" rx="1.5" fill="#0b2435"/><rect x="68" y="124" width="8" height="8" rx="1.5" fill="#0b2435"/><rect x="76" y="124" width="8" height="8" rx="1.5" fill="#0b2435"/><rect x="84" y="124" width="8" height="8" rx="1.5" fill="#0b2435"/><rect x="92" y="124" width="8" height="8" rx="1.5" fill="#0b2435"/><rect x="108" y="124" width="8" height="8" rx="1.5" fill="#0b2435"/><rect x="132" y="124" width="8" height="8" rx="1.5" fill="#0b2435"/><rect x="156" y="124" width="8" height="8" rx="1.5" fill="#0b2435"/><rect x="180" y="124" width="8" height="8" rx="1.5" fill="#0b2435"/><rect x="204" y="124" width="8" height="8" rx="1.5" fill="#0b2435"/><rect x="12" y="132" width="8" height="8" rx="1.5" fill="#0b2435"/><rect x="28" y="132" width="8" height="8" rx="1.5" fill="#0b2435"/><rect x="44" y="132" width="8" height="8" rx="1.5" fill="#0b2435"/><rect x="52" y="132" width="8" height="8" rx="1.5" fill="#0b2435"/><rect x="68" y="132" width="8" height="8" rx="1.5" fill="#0b2435"/><rect x="100" y="132" width="8" height="8" rx="1.5" fill="#0b2435"/><rect x="108" y="132" width="8" height="8" rx="1.5" fill="#0b2435"/><rect x="124" y="132" width="8" height="8" rx="1.5" fill="#0b2435"/><rect x="164" y="132" width="8" height="8" rx="1.5" fill="#0b2435"/><rect x="172" y="132" width="8" height="8" rx="1.5" fill="#0b2435"/><rect x="180" y="132" width="8" height="8" rx="1.5" fill="#0b2435"/><rect x="204" y="132" width="8" height="8" rx="1.5" fill="#0b2435"/><rect x="52" y="140" width="8" height="8" rx="1.5" fill="#0b2435"/><rect x="60" y="140" width="8" height="8" rx="1.5" fill="#0b2435"/><rect x="68" y="140" width="8" height="8" rx="1.5" fill="#0b2435"/><rect x="76" y="140" width="8" height="8" rx="1.5" fill="#0b2435"/><rect x="100" y="140" width="8" height="8" rx="1.5" fill="#0b2435"/><rect x="108" y="140" width="8" height="8" rx="1.5" fill="#0b2435"/><rect x="140" y="140" width="8" height="8" rx="1.5" fill="#0b2435"/><rect x="148" y="140" width="8" height="8" rx="1.5" fill="#0b2435"/><rect x="172" y="140" width="8" height="8" rx="1.5" fill="#0b2435"/><rect x="12" y="148" width="8" height="8" rx="1.5" fill="#0b2435"/><rect x="28" y="148" width="8" height="8" rx="1.5" fill="#0b2435"/><rect x="36" y="148" width="8" height="8" rx="1.5" fill="#0b2435"/><rect x="44" y="148" width="8" height="8" rx="1.5" fill="#0b2435"/><rect x="60" y="148" width="8" height="8" rx="1.5" fill="#0b2435"/><rect x="84" y="148" width="8" height="8" rx="1.5" fill="#0b2435"/><rect x="92" y="148" width="8" height="8" rx="1.5" fill="#0b2435"/><rect x="100" y="148" width="8" height="8" rx="1.5" fill="#0b2435"/><rect x="116" y="148" width="8" height="8" rx="1.5" fill="#0b2435"/><rect x="148" y="148" width="8" height="8" rx="1.5" fill="#0b2435"/><rect x="156" y="148" width="8" height="8" rx="1.5" fill="#0b2435"/><rect x="172" y="148" width="8" height="8" rx="1.5" fill="#0b2435"/><rect x="196" y="148" width="8" height="8" rx="1.5" fill="#0b2435"/><rect x="12" y="156" width="8" height="8" rx="1.5" fill="#0b2435"/><rect x="20" y="156" width="8" height="8" rx="1.5" fill="#0b2435"/><rect x="28" y="156" width="8" height="8" rx="1.5" fill="#0b2435"/><rect x="36" y="156" width="8" height="8" rx="1.5" fill="#0b2435"/><rect x="44" y="156" width="8" height="8" rx="1.5" fill="#0b2435"/><rect x="52" y="156" width="8" height="8" rx="1.5" fill="#0b2435"/><rect x="60" y="156" width="8" height="8" rx="1.5" fill="#0b2435"/><rect x="68" y="156" width="8" height="8" rx="1.5" fill="#0b2435"/><rect x="84" y="156" width="8" height="8" rx="1.5" fill="#0b2435"/><rect x="92" y="156" width="8" height="8" rx="1.5" fill="#0b2435"/><rect x="108" y="156" width="8" height="8" rx="1.5" fill="#0b2435"/><rect x="116" y="156" width="8" height="8" rx="1.5" fill="#0b2435"/><rect x="124" y="156" width="8" height="8" rx="1.5" fill="#0b2435"/><rect x="132" y="156" width="8" height="8" rx="1.5" fill="#0b2435"/><rect x="148" y="156" width="8" height="8" rx="1.5" fill="#0b2435"/><rect x="156" y="156" width="8" height="8" rx="1.5" fill="#0b2435"/><rect x="172" y="156" width="8" height="8" rx="1.5" fill="#0b2435"/><rect x="180" y="156" width="8" height="8" rx="1.5" fill="#0b2435"/><rect x="196" y="156" width="8" height="8" rx="1.5" fill="#0b2435"/><rect x="204" y="156" width="8" height="8" rx="1.5" fill="#0b2435"/><rect x="12" y="164" width="8" height="8" rx="1.5" fill="#0b2435"/><rect x="20" y="164" width="8" height="8" rx="1.5" fill="#0b2435"/><rect x="28" y="164" width="8" height="8" rx="1.5" fill="#0b2435"/><rect x="36" y="164" width="8" height="8" rx="1.5" fill="#0b2435"/><rect x="44" y="164" width="8" height="8" rx="1.5" fill="#0b2435"/><rect x="52" y="164" width="8" height="8" rx="1.5" fill="#0b2435"/><rect x="60" y="164" width="8" height="8" rx="1.5" fill="#0b2435"/><rect x="68" y="164" width="8" height="8" rx="1.5" fill="#0b2435"/><rect x="76" y="164" width="8" height="8" rx="1.5" fill="#0b2435"/><rect x="100" y="164" width="8" height="8" rx="1.5" fill="#0b2435"/><rect x="116" y="164" width="8" height="8" rx="1.5" fill="#0b2435"/><rect x="140" y="164" width="8" height="8" rx="1.5" fill="#0b2435"/><rect x="148" y="164" width="8" height="8" rx="1.5" fill="#0b2435"/><rect x="156" y="164" width="8" height="8" rx="1.5" fill="#0b2435"/><rect x="172" y="164" width="8" height="8" rx="1.5" fill="#0b2435"/><rect x="188" y="164" width="8" height="8" rx="1.5" fill="#0b2435"/><rect x="196" y="164" width="8" height="8" rx="1.5" fill="#0b2435"/><rect x="12" y="172" width="8" height="8" rx="1.5" fill="#0b2435"/><rect x="20" y="172" width="8" height="8" rx="1.5" fill="#0b2435"/><rect x="28" y="172" width="8" height="8" rx="1.5" fill="#0b2435"/><rect x="36" y="172" width="8" height="8" rx="1.5" fill="#0b2435"/><rect x="44" y="172" width="8" height="8" rx="1.5" fill="#0b2435"/><rect x="52" y="172" width="8" height="8" rx="1.5" fill="#0b2435"/><rect x="60" y="172" width="8" height="8" rx="1.5" fill="#0b2435"/><rect x="76" y="172" width="8" height="8" rx="1.5" fill="#0b2435"/><rect x="84" y="172" width="8" height="8" rx="1.5" fill="#0b2435"/><rect x="108" y="172" width="8" height="8" rx="1.5" fill="#0b2435"/><rect x="116" y="172" width="8" height="8" rx="1.5" fill="#0b2435"/><rect x="124" y="172" width="8" height="8" rx="1.5" fill="#0b2435"/><rect x="164" y="172" width="8" height="8" rx="1.5" fill="#0b2435"/><rect x="172" y="172" width="8" height="8" rx="1.5" fill="#0b2435"/><rect x="180" y="172" width="8" height="8" rx="1.5" fill="#0b2435"/><rect x="188" y="172" width="8" height="8" rx="1.5" fill="#0b2435"/><rect x="204" y="172" width="8" height="8" rx="1.5" fill="#0b2435"/><rect x="12" y="180" width="8" height="8" rx="1.5" fill="#0b2435"/><rect x="20" y="180" width="8" height="8" rx="1.5" fill="#0b2435"/><rect x="28" y="180" width="8" height="8" rx="1.5" fill="#0b2435"/><rect x="36" y="180" width="8" height="8" rx="1.5" fill="#0b2435"/><rect x="44" y="180" width="8" height="8" rx="1.5" fill="#0b2435"/><rect x="52" y="180" width="8" height="8" rx="1.5" fill="#0b2435"/><rect x="60" y="180" width="8" height="8" rx="1.5" fill="#0b2435"/><rect x="68" y="180" width="8" height="8" rx="1.5" fill="#0b2435"/><rect x="84" y="180" width="8" height="8" rx="1.5" fill="#0b2435"/><rect x="92" y="180" width="8" height="8" rx="1.5" fill="#0b2435"/><rect x="100" y="180" width="8" height="8" rx="1.5" fill="#0b2435"/><rect x="132" y="180" width="8" height="8" rx="1.5" fill="#0b2435"/><rect x="148" y="180" width="8" height="8" rx="1.5" fill="#0b2435"/><rect x="156" y="180" width="8" height="8" rx="1.5" fill="#0b2435"/><rect x="164" y="180" width="8" height="8" rx="1.5" fill="#0b2435"/><rect x="12" y="188" width="8" height="8" rx="1.5" fill="#0b2435"/><rect x="20" y="188" width="8" height="8" rx="1.5" fill="#0b2435"/><rect x="28" y="188" width="8" height="8" rx="1.5" fill="#0b2435"/><rect x="36" y="188" width="8" height="8" rx="1.5" fill="#0b2435"/><rect x="44" y="188" width="8" height="8" rx="1.5" fill="#0b2435"/><rect x="52" y="188" width="8" height="8" rx="1.5" fill="#0b2435"/><rect x="60" y="188" width="8" height="8" rx="1.5" fill="#0b2435"/><rect x="92" y="188" width="8" height="8" rx="1.5" fill="#0b2435"/><rect x="100" y="188" width="8" height="8" rx="1.5" fill="#0b2435"/><rect x="156" y="188" width="8" height="8" rx="1.5" fill="#0b2435"/><rect x="164" y="188" width="8" height="8" rx="1.5" fill="#0b2435"/><rect x="188" y="188" width="8" height="8" rx="1.5" fill="#0b2435"/><rect x="204" y="188" width="8" height="8" rx="1.5" fill="#0b2435"/><rect x="12" y="196" width="8" height="8" rx="1.5" fill="#0b2435"/><rect x="20" y="196" width="8" height="8" rx="1.5" fill="#0b2435"/><rect x="28" y="196" width="8" height="8" rx="1.5" fill="#0b2435"/><rect x="36" y="196" width="8" height="8" rx="1.5" fill="#0b2435"/><rect x="44" y="196" width="8" height="8" rx="1.5" fill="#0b2435"/><rect x="52" y="196" width="8" height="8" rx="1.5" fill="#0b2435"/><rect x="60" y="196" width="8" height="8" rx="1.5" fill="#0b2435"/><rect x="84" y="196" width="8" height="8" rx="1.5" fill="#0b2435"/><rect x="92" y="196" width="8" height="8" rx="1.5" fill="#0b2435"/><rect x="100" y="196" width="8" height="8" rx="1.5" fill="#0b2435"/><rect x="108" y="196" width="8" height="8" rx="1.5" fill="#0b2435"/><rect x="116" y="196" width="8" height="8" rx="1.5" fill="#0b2435"/><rect x="124" y="196" width="8" height="8" rx="1.5" fill="#0b2435"/><rect x="132" y="196" width="8" height="8" rx="1.5" fill="#0b2435"/><rect x="148" y="196" width="8" height="8" rx="1.5" fill="#0b2435"/><rect x="156" y="196" width="8" height="8" rx="1.5" fill="#0b2435"/><rect x="164" y="196" width="8" height="8" rx="1.5" fill="#0b2435"/><rect x="172" y="196" width="8" height="8" rx="1.5" fill="#0b2435"/><rect x="180" y="196" width="8" height="8" rx="1.5" fill="#0b2435"/><rect x="188" y="196" width="8" height="8" rx="1.5" fill="#0b2435"/><rect x="204" y="196" width="8" height="8" rx="1.5" fill="#0b2435"/><rect x="12" y="204" width="8" height="8" rx="1.5" fill="#0b2435"/><rect x="20" y="204" width="8" height="8" rx="1.5" fill="#0b2435"/><rect x="28" y="204" width="8" height="8" rx="1.5" fill="#0b2435"/><rect x="36" y="204" width="8" height="8" rx="1.5" fill="#0b2435"/><rect x="44" y="204" width="8" height="8" rx="1.5" fill="#0b2435"/><rect x="52" y="204" width="8" height="8" rx="1.5" fill="#0b2435"/><rect x="60" y="204" width="8" height="8" rx="1.5" fill="#0b2435"/><rect x="84" y="204" width="8" height="8" rx="1.5" fill="#0b2435"/><rect x="116" y="204" width="8" height="8" rx="1.5" fill="#0b2435"/><rect x="124" y="204" width="8" height="8" rx="1.5" fill="#0b2435"/><rect x="132" y="204" width="8" height="8" rx="1.5" fill="#0b2435"/><rect x="188" y="204" width="8" height="8" rx="1.5" fill="#0b2435"/><rect x="204" y="204" width="8" height="8" rx="1.5" fill="#0b2435"/>
<rect x="12" y="12" width="56" height="56" rx="8" fill="#0b2435"/>
  <rect x="20" y="20" width="40" height="40" rx="4" fill="#ffffff"/>
  <rect x="28" y="28" width="24" height="24" rx="3" fill="#0b2435"/><rect x="156" y="12" width="56" height="56" rx="8" fill="#0b2435"/>
  <rect x="164" y="20" width="40" height="40" rx="4" fill="#ffffff"/>
  <rect x="172" y="28" width="24" height="24" rx="3" fill="#0b2435"/><rect x="12" y="156" width="56" height="56" rx="8" fill="#0b2435"/>
  <rect x="20" y="164" width="40" height="40" rx="4" fill="#ffffff"/>
  <rect x="28" y="172" width="24" height="24" rx="3" fill="#0b2435"/>
<rect x="82" y="82" width="60" height="60" rx="10" fill="#0b6e8f"/>
<text x="112" y="103" font-family="-apple-system,'PingFang SC','Microsoft YaHei',sans-serif" font-size="12" font-weight="700" fill="#ffffff" text-anchor="middle">待替换</text>
<text x="112" y="124" font-family="-apple-system,'PingFang SC','Microsoft YaHei',sans-serif" font-size="12" font-weight="700" fill="#ffffff" text-anchor="middle">二维码</text>
</svg>